<?xml version="1.0" standalone="no"?>
<svg t="1713463308708"
    class="icon" viewBox="0 0 1024 1024" version="1.1" xmlns="http://www.w3.org/2000/svg" p-id="2455"
    xmlns:xlink="http://www.w3.org/1999/xlink" width="48" height="48">
    <path
        d="M278.869333 292.693333c-15.274667 0-21.461333-8.490667-21.461333-20.608 0-15.36 9.813333-26.453333 21.461333-26.453333h254.848c10.624 0 21.76 10.368 21.76 20.693333v5.76c0 10.368-11.008 20.48-21.76 20.48l-252.714666-2.176-2.133334 2.304z m0 125.44c-10.496 0-21.589333-10.965333-21.589333-21.418666v-5.76c0-10.496 10.965333-21.205333 21.589333-21.205334h193.28c10.453333 0 21.162667 10.709333 21.162667 21.205334l-0.256 5.888-2.176 4.053333c-6.869333 12.501333-12.672 17.408-24.661333 17.408l-189.312-2.133333 1.962666 2.005333z m545.962667-40.106666c-15.445333 0-25.728-8.106667-25.728-25.344V184.234667c0-27.733333-21.930667-49.493333-49.706667-49.493334H226.474667a48.64 48.64 0 0 0-49.066667 49.493334v654.762666c0 28.074667 21.461333 50.304 49.066667 50.304h341.034666c12.629333 0 25.301333 12.970667 25.301334 25.728 0 12.8-12.544 25.770667-25.301334 25.770667H226.474667c-56.917333 0-100.608-46.250667-100.608-101.802667V184.234667c0-53.418667 47.274667-101.034667 100.608-101.034667h523.093333a100.693333 100.693333 0 0 1 101.162667 101.034667v168.490666c-0.170667 16.853333-8.149333 25.301333-25.898667 25.301334z m86.101333 261.461333c2.048 8.533333 0.853333 15.445333-3.2 23.381333-1.322667 2.517333-2.304 4.096-5.546666 9.386667-1.024 1.450667-1.962667 2.944-2.901334 4.608l-124.288 202.538667a58.453333 58.453333 0 0 1-80.298666 19.285333l-71.210667-43.434667a59.562667 59.562667 0 0 1-26.325333-15.36l-133.034667-132.522666a58.282667 58.282667 0 0 1-17.450667-41.813334c0-15.573333 6.4-30.72 17.493334-41.813333l170.922666-170.538667c1.749333-1.749333 3.328-3.456 5.845334-6.272 11.008-12.202667 15.488-15.018667 27.392-15.018666h173.781333c16.682667 0 30.293333 13.653333 30.293333 30.293333l-2.432 24.32 4.309334 1.365333 36.650666 151.594667z m-196.736 232.704a21.162667 21.162667 0 0 0 28.842667-6.912l33.322667-49.237333 96.298666-153.258667c5.973333-9.514667 8.405333-16.213333 6.442667-20.906667l-6.656-28.288v21.845334c0 11.989333-3.84 17.92-16.341333 30.08a96.938667 96.938667 0 0 0-4.053334 3.882666l-171.093333 170.538667c-2.389333 2.346667-4.224 3.968-6.144 2.858667l39.381333 29.397333z m-223.274666-221.397333a21.077333 21.077333 0 0 0 0.128 29.909333l133.034666 132.608a21.077333 21.077333 0 0 0 15.018667 6.144 21.077333 21.077333 0 0 0 15.018667-6.186667l40.490666-40.277333 130.645334-130.218667c6.101333-6.101333 11.306667-14.933333 11.306666-19.626666v-148.352a6.826667 6.826667 0 0 0-6.826666-6.869334h-148.992c-3.669333 0-11.392 4.906667-18.730667 12.202667l-131.968 131.584-22.314667 22.101333-17.493333 15.018667 0.682667 1.962667z m163.114666 14.506666l-16.085333 13.056 30.592 30.421334a14.634667 14.634667 0 0 1-0.426667 20.437333 14.506667 14.506667 0 0 1-20.48 0.426667l-27.52-30.421334-19.072 19.072a15.36 15.36 0 0 1-21.589333-21.632l19.029333-16.042666-30.165333-30.122667a14.634667 14.634667 0 0 1 0.469333-20.437333 14.506667 14.506667 0 0 1 20.48-0.426667l27.093334 30.122667 16.085333-13.098667-30.165333-30.122667a14.634667 14.634667 0 0 1 0.469333-20.394666 14.506667 14.506667 0 0 1 20.48-0.426667l18.602667 23.765333-0.128-55.04c0-6.528 6.4-11.306667 14.378666-11.306666 4.565333 0 8.789333 1.536 11.52 4.309333a10.325333 10.325333 0 0 1 3.157334 7.253333l-2.133334 61.354667h63.488c2.645333 0 5.248 1.152 7.253334 3.114667 2.773333 2.602667 4.352 6.826667 4.352 11.434666 0 8.064-4.821333 14.506667-11.477334 14.506667l-53.546666-3.754667 23.936 23.765334a14.634667 14.634667 0 0 1-0.426667 20.437333 14.506667 14.506667 0 0 1-20.48 0.426667l-27.690667-30.72z m-396.8-144.128v-5.76c0-11.989333 6.314667-20.181333 21.632-20.181333h90.368c10.581333 0 20.736 9.770667 20.736 20.181333v5.76c0 10.496-10.282667 20.992-20.736 20.992H278.869333c-10.538667 0-21.589333-10.624-21.589333-20.992z m490.88 5.034667a16.682667 16.682667 0 0 1 12.501334-4.992 17.536 17.536 0 1 1 12.373333 29.866667l-0.426667 0.426666a17.92 17.92 0 0 1-24.490666-0.64 17.493333 17.493333 0 0 1 0-24.661333z"
        fill="#ffffff" p-id="2456"></path>
</svg>