<?xml version="1.0" standalone="no"?>
<svg t="1713429919975" class="icon" viewBox="0 0 1024 1024" version="1.1" xmlns="http://www.w3.org/2000/svg" p-id="6974"
    xmlns:xlink="http://www.w3.org/1999/xlink" width="48" height="48">
    <path
        d="M828.952381 867.961905H195.047619V370.590476L4.87619 619.27619l78.019048 58.514286 14.628572-19.504762v307.2h828.95238v-248.685714h-97.523809zM195.047619 156.038095h633.904762v502.247619l190.171429-248.685714-78.019048-58.514286-14.628572 19.504762V58.514286H97.52381v258.438095h97.523809z"
        fill="#fff" p-id="6975"></path>
    <path
        d="M687.542857 526.628571v-97.523809h-92.647619l78.019048-126.780952-87.771429-48.761905-73.142857 131.657143-78.019048-131.657143-82.895238 48.761905 73.142857 126.780952H336.457143v97.523809h126.780952v43.885715H336.457143v97.523809h126.780952v131.657143h97.52381v-131.657143h126.780952v-97.523809h-126.780952v-43.885715z"
        fill="#fff" p-id="6976"></path>
</svg>