<?xml version="1.0" standalone="no"?>
<svg t="1713430478611" class="icon" viewBox="0 0 1024 1024" version="1.1" xmlns="http://www.w3.org/2000/svg"
    p-id="16116" id="mx_n_1713430478612" xmlns:xlink="http://www.w3.org/1999/xlink" width="48" height="48">
    <path
        d="M295.936 34.133333A102.4 102.4 0 0 0 392.533333 170.666667h238.933334a102.4 102.4 0 0 0 96.597333-136.533334H836.266667a68.266667 68.266667 0 0 1 68.266666 68.266667v853.333333a68.266667 68.266667 0 0 1-68.266666 68.266667H187.733333a68.266667 68.266667 0 0 1-68.266666-68.266667V102.4a68.266667 68.266667 0 0 1 68.266666-68.266667h108.202667z"
        fill="#fff" p-id="16117"></path>
    <path
        d="M324.266667 0m68.266666 0l238.933334 0q68.266667 0 68.266666 68.266667l0 0q0 68.266667-68.266666 68.266666l-238.933334 0q-68.266667 0-68.266666-68.266666l0 0q0-68.266667 68.266666-68.266667Z"
        fill="#fff" p-id="16118"></path>
    <path
        d="M256 341.333333m51.2 0l409.6 0q51.2 0 51.2 51.2l0 0q0 51.2-51.2 51.2l-409.6 0q-51.2 0-51.2-51.2l0 0q0-51.2 51.2-51.2Z"
        fill="#FFB111" p-id="16119" data-spm-anchor-id="a313x.search_index.0.i23.6ef13a81C8KM2y" class="selected">
    </path>
    <path
        d="M256 512m51.2 0l409.6 0q51.2 0 51.2 51.2l0 0q0 51.2-51.2 51.2l-409.6 0q-51.2 0-51.2-51.2l0 0q0-51.2 51.2-51.2Z"
        fill="#FFB111" p-id="16120" data-spm-anchor-id="a313x.search_index.0.i24.6ef13a81C8KM2y" class="selected">
    </path>
    <path
        d="M256 682.666667m51.2 0l170.666667 0q51.2 0 51.2 51.2l0 0q0 51.2-51.2 51.2l-170.666667 0q-51.2 0-51.2-51.2l0 0q0-51.2 51.2-51.2Z"
        fill="#FFB111" p-id="16121" data-spm-anchor-id="a313x.search_index.0.i25.6ef13a81C8KM2y" class="selected">
    </path>
</svg>