<?xml version="1.0" standalone="no"?>
<svg t="1713432010344"
    class="icon" viewBox="0 0 1024 1024" version="1.1" xmlns="http://www.w3.org/2000/svg" p-id="18230"
    xmlns:xlink="http://www.w3.org/1999/xlink" width="48" height="48">
    <path
        d="M580.096 372.224c-5.290667 0-10.752-1.194667-15.701333-3.925333l-239.616-124.928a34.167467 34.167467 0 0 1 31.573333-60.586667l239.616 124.928a34.167467 34.167467 0 0 1-15.872 64.512z"
        fill="#fff" p-id="18231"></path>
    <path
        d="M931.498667 292.522667H630.613333c18.602667 20.650667 23.722667 51.2 10.069334 77.312a68.164267 68.164267 0 0 1-60.586667 36.693333c-10.581333 0-21.333333-2.56-31.573333-7.68L344.746667 292.522667H97.450667c-32.085333 0-60.757333 24.064-62.464 55.978666-1.706667 34.133333 25.429333 62.293333 59.050666 62.293334h1.365334l158.208 472.234666a72.192 72.192 0 0 0 68.437333 49.152h381.44a72.192 72.192 0 0 0 68.437333-49.152l158.208-472.234666h1.365334c24.917333 0 47.957333-15.36 55.808-39.082667 13.653333-41.130667-16.725333-79.189333-55.808-79.189333z m-307.370667 547.84H401.408c-18.773333 0-34.133333-15.36-34.133333-34.133334s15.36-34.133333 34.133333-34.133333h222.72c18.773333 0 34.133333 15.36 34.133333 34.133333s-15.36 34.133333-34.133333 34.133334z m43.008-119.978667h-308.906667c-18.773333 0-34.133333-15.36-34.133333-34.133333s15.36-34.133333 34.133333-34.133334h308.906667a34.133333 34.133333 0 1 1 0 68.266667z m45.909333-119.978667H312.32c-18.773333 0-34.133333-15.36-34.133333-34.133333s15.36-34.133333 34.133333-34.133333h400.725333a34.133333 34.133333 0 1 1 0 68.266666z"
        fill="#fff" p-id="18232"></path>
</svg>